# xmcd
#
# Track frame offsets: 
#        150
#        14000
#        25121
#        40086
#        59053
#        70444
#        84223
#        95391
#        109629
#        127323
#        141263
#        154218
#
# Disc length: 2237 seconds
#
# Revision: 0
# Processed by: cddbd v1.4PL0 Copyright (c) Steve Scherf et al.
# Submitted via: ExactAudioCopy v0.90a11
#
DISCID=a708bb0c
DTITLE=Patty Loveless - The Best Of Patty Loveless (The Millennium Col
DTITLE=lection)
DYEAR=1900
DGENRE=
TTITLE0=If My Heart Had Windows
TTITLE1=A Little Bit In Love
TTITLE2=Blue Side Of Town
TTITLE3=Don't Toss Us Away
TTITLE4=Timber, I'm Falling In Love
TTITLE5=The Lonely Side Of Love
TTITLE6=Chains
TTITLE7=On Down The Line
TTITLE8=The Night's Too Long 
TTITLE9=I'm That Kind Of Girl
TTITLE10=Blue Memories
TTITLE11=Hurt Me Bad (In A Real Good Way)
EXTD=
EXTT0=
EXTT1=
EXTT2=
EXTT3=
EXTT4=
EXTT5=
EXTT6=
EXTT7=
EXTT8=
EXTT9=
EXTT10=
EXTT11=
PLAYORDER=
